<svg width="25" height="25" viewBox="0 0 25 25" fill="none" xmlns="http://www.w3.org/2000/svg">
<path d="M8.44727 17.4479C8.49067 17.3828 8.47439 17.3123 8.39844 17.2363C8.30078 17.1604 8.22483 17.1495 8.17057 17.2038C8.12717 17.2689 8.14345 17.3394 8.2194 17.4154C8.31706 17.4913 8.39301 17.5022 8.44727 17.4479ZM7.99154 16.7806C7.93728 16.7046 7.87218 16.6829 7.79622 16.7155C7.73112 16.7589 7.73112 16.824 7.79622 16.9108C7.87218 16.9976 7.93728 17.0247 7.99154 16.9922C8.05664 16.9488 8.05664 16.8783 7.99154 16.7806ZM7.32422 16.1296C7.34592 16.0862 7.31879 16.0428 7.24284 15.9993C7.16688 15.9776 7.12348 15.9885 7.11263 16.0319C7.08008 16.0862 7.10178 16.1296 7.17773 16.1621C7.26454 16.1838 7.31337 16.173 7.32422 16.1296ZM7.66602 16.5039C7.68772 16.4931 7.69585 16.4686 7.69043 16.4307C7.685 16.3927 7.66602 16.3628 7.63346 16.3411C7.56836 16.2652 7.51411 16.2489 7.4707 16.2923C7.4273 16.3357 7.43273 16.3954 7.48698 16.4714C7.55208 16.5365 7.61176 16.5473 7.66602 16.5039ZM9.06575 17.7246C9.08746 17.6487 9.03863 17.589 8.91927 17.5456C8.82161 17.513 8.75108 17.5347 8.70768 17.6107C8.68598 17.6866 8.73481 17.7463 8.85417 17.7897C8.95182 17.8223 9.02235 17.8006 9.06575 17.7246ZM9.74935 17.7734C9.74935 17.6866 9.68424 17.6432 9.55404 17.6432C9.44553 17.6432 9.39128 17.6866 9.39128 17.7734C9.39128 17.8602 9.45095 17.9036 9.57031 17.9036C9.68967 17.9036 9.74935 17.8602 9.74935 17.7734ZM10.3841 17.6595C10.3624 17.5835 10.2919 17.5564 10.1725 17.5781C10.0532 17.5998 10.0043 17.6487 10.026 17.7246C10.0477 17.8114 10.1128 17.844 10.2214 17.8223C10.3299 17.8006 10.3841 17.7463 10.3841 17.6595ZM20.8333 12.5C20.8333 10.1997 20.0195 8.23568 18.3919 6.60807C16.7643 4.98047 14.8003 4.16667 12.5 4.16667C10.1997 4.16667 8.23568 4.98047 6.60807 6.60807C4.98047 8.23568 4.16667 10.1997 4.16667 12.5C4.16667 14.3121 4.69835 15.9424 5.76172 17.3909C6.82509 18.8395 8.19227 19.8459 9.86328 20.4102C10.0586 20.4427 10.2024 20.4156 10.2946 20.3288C10.3868 20.242 10.4329 20.1335 10.4329 20.0033C10.4329 19.439 10.4275 18.9236 10.4167 18.457C10.3516 18.4679 10.2675 18.4814 10.1644 18.4977C10.0613 18.514 9.86871 18.5248 9.58659 18.5303C9.30447 18.5357 9.04405 18.514 8.80534 18.4652C8.56662 18.4163 8.33062 18.3078 8.09733 18.1396C7.86404 17.9715 7.70399 17.7463 7.61719 17.4642C7.36762 16.824 7.05838 16.4225 6.68945 16.2598C6.66775 16.2489 6.64334 16.2299 6.61621 16.2028L6.486 16.0726L6.37207 15.918L6.43717 15.7959L6.75456 15.7389C6.81966 15.7389 6.90104 15.7498 6.9987 15.7715C7.09635 15.7932 7.25911 15.8773 7.48698 16.0238C7.71484 16.1702 7.89388 16.3628 8.02409 16.6016C8.1977 16.9054 8.40115 17.1332 8.63444 17.2852C8.86773 17.4371 9.10373 17.513 9.34245 17.513C9.58116 17.513 9.78733 17.494 9.96094 17.4561C10.1345 17.4181 10.2973 17.3665 10.4492 17.3014C10.5252 16.7914 10.7042 16.4171 10.9863 16.1784C10.4546 16.1133 9.98806 16.0129 9.58659 15.8773C9.18511 15.7416 8.78906 15.5301 8.39844 15.2425C8.00781 14.955 7.70671 14.5426 7.49512 14.0055C7.28353 13.4684 7.17773 12.8201 7.17773 12.0605C7.17773 11.2033 7.46528 10.4601 8.04036 9.83073C7.77995 9.15799 7.80707 8.42014 8.12174 7.61719C8.32791 7.55208 8.62359 7.59277 9.00879 7.73926C9.39399 7.88574 9.72222 8.04579 9.99349 8.2194L10.4167 8.47982C11.046 8.29536 11.7405 8.20312 12.5 8.20312C13.2595 8.20312 13.954 8.29536 14.5833 8.47982C14.7027 8.40386 14.8573 8.30621 15.0472 8.18685C15.2371 8.06749 15.5382 7.92643 15.9505 7.76367C16.3628 7.60091 16.6721 7.55208 16.8783 7.61719C17.1929 8.42014 17.2201 9.15799 16.9596 9.83073C17.5347 10.4601 17.8223 11.2033 17.8223 12.0605C17.8223 12.679 17.7463 13.2243 17.5944 13.6963C17.4425 14.1683 17.2499 14.5481 17.0166 14.8356C16.7833 15.1232 16.4931 15.3646 16.1458 15.5599C15.7986 15.7552 15.4595 15.8963 15.1286 15.9831C14.7976 16.0699 14.426 16.135 14.0137 16.1784C14.3934 16.5148 14.5833 17.0302 14.5833 17.7246C14.5833 18.1586 14.5806 18.6415 14.5752 19.1732C14.5698 19.7049 14.5671 19.9816 14.5671 20.0033C14.5671 20.1335 14.6132 20.242 14.7054 20.3288C14.7976 20.4156 14.9414 20.4427 15.1367 20.4102C16.8077 19.8459 18.1749 18.8395 19.2383 17.3909C20.3016 15.9424 20.8333 14.3121 20.8333 12.5ZM25 4.6875V20.3125C25 21.6037 24.5416 22.7078 23.6247 23.6247C22.7078 24.5416 21.6037 25 20.3125 25H4.6875C3.39627 25 2.29221 24.5416 1.37533 23.6247C0.458442 22.7078 0 21.6037 0 20.3125V4.6875C0 3.39627 0.458442 2.29221 1.37533 1.37533C2.29221 0.458442 3.39627 0 4.6875 0H20.3125C21.6037 0 22.7078 0.458442 23.6247 1.37533C24.5416 2.29221 25 3.39627 25 4.6875Z" fill="white"/>
</svg>
