<svg width="25" height="25" viewBox="0 0 25 25" fill="none" xmlns="http://www.w3.org/2000/svg">
<path d="M3.85742 20.931H7.61719V9.63542H3.85742V20.931ZM7.86133 6.15234C7.85048 5.58811 7.65516 5.12153 7.27539 4.7526C6.89562 4.38368 6.39106 4.19922 5.76172 4.19922C5.13238 4.19922 4.61968 4.38368 4.22363 4.7526C3.82758 5.12153 3.62956 5.58811 3.62956 6.15234C3.62956 6.70573 3.82216 7.1696 4.20736 7.54394C4.59256 7.91829 5.0944 8.10547 5.71289 8.10547H5.72917C6.36936 8.10547 6.88477 7.91829 7.27539 7.54394C7.66602 7.1696 7.86133 6.70573 7.86133 6.15234ZM17.3828 20.931H21.1426V14.4531C21.1426 12.7821 20.7465 11.518 19.9544 10.6608C19.1623 9.8036 18.1152 9.375 16.8132 9.375C15.3375 9.375 14.2036 10.0098 13.4115 11.2793H13.444V9.63542H9.68424C9.7168 10.3516 9.7168 14.1168 9.68424 20.931H13.444V14.6159C13.444 14.2036 13.482 13.8997 13.5579 13.7044C13.7207 13.3247 13.9648 13.0018 14.2904 12.736C14.6159 12.4702 15.0174 12.3372 15.4948 12.3372C16.7535 12.3372 17.3828 13.189 17.3828 14.8926V20.931ZM25 4.6875V20.3125C25 21.6037 24.5416 22.7078 23.6247 23.6247C22.7078 24.5416 21.6037 25 20.3125 25H4.6875C3.39627 25 2.29221 24.5416 1.37533 23.6247C0.458442 22.7078 0 21.6037 0 20.3125V4.6875C0 3.39627 0.458442 2.29221 1.37533 1.37533C2.29221 0.458442 3.39627 0 4.6875 0H20.3125C21.6037 0 22.7078 0.458442 23.6247 1.37533C24.5416 2.29221 25 3.39627 25 4.6875Z" fill="white"/>
</svg>
